<svg width="25" height="35" viewBox="0 0 25 35" fill="none" xmlns="http://www.w3.org/2000/svg">
<path d="M15.1141 23.5653C11.2118 23.3592 8.16245 19.9015 6.93883 16.326C6.19749 14.2274 6.60466 11.0792 9.07441 10.4897C12.6526 9.88305 15.6218 12.9172 17.2859 15.8207C18.4714 17.9743 19.1268 21.3655 16.9041 23.0726C16.3763 23.4259 15.7383 23.5676 15.1141 23.5653ZM21.3306 11.3072C16.9341 8.64178 11.3805 8.43419 6.56621 9.92585C3.51659 10.9902 0.0288419 13.2541 9.94994e-07 16.939C-0.00211264 20.5494 3.36362 22.8018 6.34201 23.8744C11.0572 25.414 16.4977 25.2787 20.9 22.8243C23.392 21.5009 25.6008 18.7603 24.8518 15.7228C24.44 13.7696 22.941 12.3082 21.3306 11.3072Z" fill="#D6D6D6"/>
</svg>
