<svg width="14" height="35" viewBox="0 0 14 35" fill="none" xmlns="http://www.w3.org/2000/svg">
<path d="M8.91887 32.1054C8.91887 32.1054 7.40431 33.0227 4.86375 33.3437C2.3232 33.6648 2 32.5 2 32.5C2 32.5 1.29721 31.4174 3.39805 29.858C5.49889 28.2986 5.88974 28.2527 6.67145 27.9317C7.45316 27.6106 7.45317 27.473 9.4563 27.2437C11.4594 27.0144 11.8991 27.3813 12.1923 27.7024C12.4854 28.0234 12.974 28.8948 11.8503 30.0873C10.7266 31.2798 8.91887 32.1054 8.91887 32.1054ZM14 3.93661e-07L12.632 0V26.6835C12.632 26.6835 9.41245 25.0989 5.79203 26.5C4.5 27 1.29314 28.9361 1 31C0.560288 33.706 3.05605 34.5362 3.05605 34.5362C4.86376 35.3618 8.52802 35.2242 11.5571 32.9768C14.0977 31.1881 13.9171 28.7114 13.9171 28.7114L14 3.93661e-07Z" fill="#D6D6D6"/>
</svg>
