<svg width="17" height="42" viewBox="0 0 17 42" fill="none" xmlns="http://www.w3.org/2000/svg">
<path d="M9.43177 34.2892V0.235868C9.44211 0.167073 9.50627 0.0235868 9.6801 0H10.2078C10.2803 0.00982781 10.4313 0.0707603 10.4562 0.235868C10.4458 0.432424 10.4624 1.01423 10.6114 1.76901C10.7976 2.71248 11.3564 4.15717 12.1635 5.42495C12.9706 6.69274 15.3919 10.2013 15.9506 11.7344C16.5094 13.2675 17.1027 15.3019 16.0472 17.1888L15.0443 15.5C15.1271 15.0577 14.9138 13.81 14.4916 12.7958C13.9639 11.528 13.312 10.1423 12.1945 8.84503C11.3005 7.80722 10.6631 7.01706 10.4562 6.75171C10.4148 7.36103 10.5369 8.96297 11.3564 10.4961C12.1759 12.0292 13.788 14.1815 14.4916 15.066C15.04 15.813 16.2176 17.5957 16.5404 18.7515C16.944 20.1962 17.2889 22.3995 16.0472 24.0801L15.0443 22.1983C15.4064 21.4318 15.516 19.5003 13.7777 17.1888C12.0393 14.8773 10.8183 13.7688 10.4251 13.5034C10.4355 14.1521 10.6114 15.7618 11.2322 17.0119C11.8531 18.262 13.8294 20.9922 14.74 22.201C15.0918 22.7121 15.8823 23.917 16.23 24.6482C16.723 25.8836 17.3346 28.7561 15.8365 30.3629L14.8893 28.8565C15.2544 28.36 15.5642 26.7096 13.8829 24.0801C12.2015 21.4506 11.0708 20.4585 10.7156 20.2911C10.7057 20.8397 10.7629 22.5646 11.0708 23.4219C11.3786 24.2793 12.2647 25.3544 12.6692 25.9916C13.8335 27.4979 16.2213 30.7646 16.4582 31.7806C16.7542 33.0506 17.8711 35.6262 15.6402 39.8616C15.4953 40.0483 15.1684 40.3864 14.771 40.2449L14.7637 40.2423C14.271 40.0668 13.933 39.9465 13.9639 39.213C13.9644 39.202 13.9648 39.1914 13.9653 39.181C13.9648 39.1819 13.9644 39.1827 13.9639 39.1835C13.9741 38.952 13.9882 38.6353 13.9653 39.181C14.4727 38.2558 15.4538 36.057 15.3298 34.643C15.1746 32.874 15.0814 32.5202 13.9639 30.7217C13.2955 29.8539 11.4981 27.9055 10.4562 27.0549V36.0877C10.4458 36.6479 10.3258 37.898 9.92844 38.4169C9.43177 39.0656 8.87301 40.8935 5.17899 41.8075C1.48498 42.7215 0.212253 40.127 0.0570427 39.3309C-0.098168 38.5349 -0.0671258 36.589 1.88853 34.9968C3.45305 33.7232 5.18934 33.3261 5.86192 33.2868C6.71041 33.2475 8.61226 33.3929 9.43177 34.2892Z" fill="#D6D6D6"/>
</svg>
