<svg width="117" height="62" viewBox="0 0 117 62" fill="none" xmlns="http://www.w3.org/2000/svg">
<path fill-rule="evenodd" clip-rule="evenodd" d="M5.1 21.069C24.6 7.7357 68.1 -9.92966 109.1 21.069C92.8999 6.82721 74.8824 -0.822849 57.6 0.0703139C36.0505 1.184 15.9214 13.6698 5.1 21.069ZM4.6 33.0703C4.44 33.0703 4.28 33.1103 4.12 33.1903L0.28 34.9903C0.0933333 35.0703 0 35.2303 0 35.4703L0.16 37.7103C0.213333 37.9503 0.32 38.0703 0.48 38.0703L0.64 38.0303L4.2 37.1103C4.22667 37.0836 4.25333 37.097 4.28 37.1503C4.33333 37.177 4.36 37.217 4.36 37.2703V60.6703C4.36 60.937 4.49333 61.0703 4.76 61.0703H7.8C8.06667 61.0703 8.2 60.937 8.2 60.6703V33.4703C8.2 33.2036 8.06667 33.0703 7.8 33.0703H4.6ZM116.08 48.4303C116.373 49.737 116.52 51.0836 116.52 52.4703C116.52 53.8036 116.4 55.017 116.16 56.1103C115.787 57.817 115.08 59.1236 114.04 60.0303C113 60.937 111.573 61.3903 109.76 61.3903C107.893 61.3903 106.36 60.8836 105.16 59.8703C103.987 58.857 103.293 57.4703 103.08 55.7103C102.947 54.7236 102.88 53.777 102.88 52.8703C102.88 52.6036 103.013 52.4703 103.28 52.4703H106.32C106.587 52.4703 106.72 52.6036 106.72 52.8703C106.773 53.9636 106.84 54.737 106.92 55.1903C107.08 56.097 107.4 56.8036 107.88 57.3103C108.387 57.7903 109.013 58.0303 109.76 58.0303C111.253 58.0303 112.2 57.1636 112.6 55.4303C112.76 54.417 112.84 53.297 112.84 52.0703C112.84 50.6303 112.72 49.377 112.48 48.3103C112.267 47.5636 111.92 46.9903 111.44 46.5903C110.987 46.1636 110.427 45.9503 109.76 45.9503C109.413 45.9503 109.053 46.0703 108.68 46.3103C108.6 46.3903 108.507 46.4303 108.4 46.4303C108.293 46.4303 108.2 46.377 108.12 46.2703L106.6 44.7103C106.467 44.5236 106.453 44.337 106.56 44.1503L111.76 36.5903C111.787 36.5636 111.787 36.5236 111.76 36.4703C111.733 36.417 111.693 36.3903 111.64 36.3903H103.56C103.293 36.3903 103.16 36.257 103.16 35.9903V33.4703C103.16 33.2036 103.293 33.0703 103.56 33.0703H116.04C116.307 33.0703 116.44 33.2036 116.44 33.4703V36.1103C116.44 36.3236 116.387 36.497 116.28 36.6303L111.6 43.5103C111.52 43.5903 111.547 43.657 111.68 43.7103C112.747 43.8703 113.653 44.377 114.4 45.2303C115.173 46.057 115.733 47.1236 116.08 48.4303ZM15.6364 35.4969L95.6364 61.4969L96.5636 58.6438L16.5636 32.6438L15.6364 35.4969Z" fill="#D6D6D6"/>
</svg>
