<svg width="117" height="29" viewBox="0 0 117 29" fill="none" xmlns="http://www.w3.org/2000/svg">
<path fill-rule="evenodd" clip-rule="evenodd" d="M8.53638 26L88.5364 0L89.4636 2.8531L9.46363 28.8531L8.53638 26ZM107.82 19.8266C107.82 18.5999 107.713 17.4799 107.5 16.4666C107.26 14.7332 106.66 13.3999 105.7 12.4666C104.767 11.5065 103.54 11.0266 102.02 11.0266C101.193 11.0266 100.447 11.1866 99.7801 11.5065C99.1134 11.7999 98.5667 12.2132 98.1401 12.7466C98.0867 12.7999 98.0334 12.8265 97.9801 12.8265C97.9534 12.7999 97.9401 12.7599 97.9401 12.7066V3.90655C97.9401 3.79988 97.9934 3.74655 98.1001 3.74655H106.86C107.127 3.74655 107.26 3.61322 107.26 3.34655V0.82655C107.26 0.559883 107.127 0.426552 106.86 0.426552H94.5001C94.2334 0.426552 94.1001 0.559883 94.1001 0.82655V16.6266C94.1001 16.8932 94.2334 17.0266 94.5001 17.0266H97.5801C97.7934 17.0266 97.9401 16.9066 98.0201 16.6666C98.3934 15.1466 99.3667 14.3866 100.94 14.3866C101.633 14.3866 102.207 14.5999 102.66 15.0266C103.14 15.4532 103.473 16.0666 103.66 16.8666C103.873 17.7199 103.98 18.7066 103.98 19.8266C103.98 20.8932 103.9 21.8266 103.74 22.6265C103.58 23.5332 103.26 24.2266 102.78 24.7066C102.3 25.1866 101.687 25.4266 100.94 25.4266C99.3934 25.4266 98.4467 24.4666 98.1001 22.5466L97.9801 21.6665C97.9801 21.3999 97.8467 21.2665 97.5801 21.2665H94.5401C94.2734 21.2665 94.1401 21.3999 94.1401 21.6665L94.2601 22.8666C94.5534 24.8132 95.2734 26.2799 96.4201 27.2665C97.5667 28.2532 99.0734 28.7466 100.94 28.7466C102.86 28.7466 104.407 28.2399 105.58 27.2266C106.753 26.2132 107.433 24.7599 107.62 22.8666C107.753 21.8532 107.82 20.8399 107.82 19.8266Z" fill="#D6D6D6"/>
</svg>
