<svg width="17" height="42" viewBox="0 0 17 42" fill="none" xmlns="http://www.w3.org/2000/svg">
<path d="M9.43177 0.235868V34.2892C8.61226 33.3929 6.71041 33.2475 5.86192 33.2868C5.18934 33.3261 3.45305 33.7232 1.88853 34.9968C-0.0671258 36.589 -0.098168 38.5349 0.0570427 39.3309C0.212253 40.127 1.48498 42.7215 5.17899 41.8075C8.87301 40.8935 9.43177 39.0656 9.92844 38.4169C10.3258 37.898 10.4458 36.6479 10.4562 36.0877V20.2911C10.8114 20.4585 12.2015 21.4506 13.8829 24.0801C15.5642 26.7096 15.2544 28.36 14.8893 28.8565L15.8365 30.3629C17.3346 28.7561 16.723 25.8836 16.23 24.6482C15.8823 23.917 15.0918 22.7121 14.74 22.201C13.8294 20.9922 11.8531 18.262 11.2322 17.0119C10.6114 15.7618 10.4355 14.1521 10.4251 13.5034C10.8183 13.7688 12.0393 14.8773 13.7777 17.1888C15.516 19.5004 15.4064 21.4318 15.0443 22.1983L16.0472 24.0801C17.2889 22.3995 16.944 20.1962 16.5404 18.7515C16.2176 17.5957 15.04 15.813 14.4916 15.066C13.788 14.1815 12.1759 12.0292 11.3564 10.4961C10.5369 8.96297 10.4148 7.36103 10.4562 6.75171C10.6631 7.01706 11.3005 7.80722 12.1945 8.84503C13.312 10.1423 13.9639 11.528 14.4916 12.7958C14.9138 13.81 15.1271 15.0577 15.0443 15.5L16.0472 17.1888C17.1027 15.3019 16.5094 13.2675 15.9506 11.7344C15.3919 10.2013 12.9706 6.69274 12.1635 5.42495C11.3564 4.15717 10.7976 2.71248 10.6114 1.76901C10.4624 1.01423 10.4458 0.432424 10.4562 0.235868C10.4313 0.0707603 10.2803 0.00982781 10.2078 0H9.6801C9.50627 0.0235868 9.44211 0.167073 9.43177 0.235868Z" fill="#D6D6D6"/>
</svg>
