<svg width="56" height="210" viewBox="0 0 56 210" fill="none" xmlns="http://www.w3.org/2000/svg">
<path d="M34.5155 123.94L56 45.1436C53.0545 40.1921 49.0695 52.5708 45.6909 52.3147C42.3123 52.0585 43.1786 47.7047 41.7925 45.1436C40.4064 42.5825 39.7133 42.4117 37.8941 41.3873C36.0748 40.3628 27.4983 41.0458 26.7187 47.4486C25.939 53.8513 29.4042 57.3515 34.6021 58.4613C38.7604 59.3492 45.9797 57.2946 49.0695 56.1563L44.6513 70.4131C44.3048 73.9987 39.1069 81.8527 36.4213 81.7673C33.7358 81.682 33.3893 78.6086 32.9561 76.389C32.5229 74.1694 30.8769 70.84 26.3721 70.4131C21.8673 69.9863 19.0951 72.7181 17.4491 76.389C15.8031 80.0599 18.8352 86.0358 24.0331 87.6579C28.1914 88.9555 36.3347 86.8895 39.8866 85.6944L28.0181 123.684C30.4438 125.938 33.3604 124.794 34.5155 123.94Z" fill="black"/>
</svg>
