<svg width="45" height="210" viewBox="0 0 45 210" fill="none" xmlns="http://www.w3.org/2000/svg">
<path d="M19.5118 125L45 44.6355C43.5605 40.7295 39.3265 49.7881 36.4475 50.5361C33.5684 51.2841 33.4837 45.5497 32.637 44.3031C31.7902 43.0565 31.3668 41.5605 28.403 41.0619C25.4393 40.5633 20.3586 43.1396 20.3586 46.547C20.3586 49.9544 20.6126 52.9462 25.1006 55.0239C28.6909 56.686 35.8547 54.8854 38.9878 53.7773L34.3305 65.246C29.8426 71.9777 27.3022 68.4041 27.1329 66.6589C26.9635 64.9136 25.3546 58.9299 20.6126 59.6779C15.8706 60.4258 13.923 63.4177 13.7537 65.4954C13.5843 67.573 14.3464 72.1439 18.7497 73.8061C22.2723 75.1358 28.9676 73.529 31.8749 72.5595L28.6571 82.283C24.7619 89.0978 21.2901 88.516 20.9513 86.189C20.6126 83.862 19.7658 78.7094 15.6166 78.377C11.4674 78.0445 8.41895 81.1195 8.16491 83.2803C7.91088 85.4411 7.31813 89.1809 12.2295 91.8403C16.1586 93.9678 22.9554 92.1727 25.8627 91.0092L13.5843 125H19.5118Z" fill="black"/>
</svg>
