<svg width="21" height="210" viewBox="0 0 21 210" fill="none" xmlns="http://www.w3.org/2000/svg">
<path d="M8.266 41H4.01044C5.88361 43.043 9.50993 48.2043 9.02982 52.5054C8.5497 56.8065 3.77402 61.5735 1.44619 63.4194L11.9214 77.0753C6.41101 74.871 0.736932 76.5914 0.573257 82.828C0.442316 87.8172 7.42943 93.6882 10.9394 96L12.3579 93.957C9.02982 90.7849 7.22939 85.086 9.5754 82.6129C11.4522 80.6344 16.2133 82.6129 18.3593 83.8495L19.8324 81.6989C17.3409 79.0466 12.3797 72.7634 12.467 68.8495C12.5543 64.9355 17.6682 58.2222 20.2143 55.3548L8.266 41Z" fill="black"/>
</svg>
