<svg width="40" height="210" viewBox="0 0 40 210" fill="none" xmlns="http://www.w3.org/2000/svg">
<path d="M21.7517 41H15.2523C18.1131 44.1202 23.6515 52.0029 22.9182 58.5718C22.185 65.1408 14.8912 72.4213 11.336 75.2405L27.3345 96.0968C18.9186 92.7302 10.2527 95.3578 10.0028 104.883C9.80279 112.503 20.474 121.469 25.8346 125L28.0011 121.88C22.9182 117.035 20.1685 108.331 23.7515 104.554C26.6179 101.533 33.8895 104.554 37.1669 106.443L39.4167 103.158C35.6115 99.1075 28.0344 89.5114 28.1678 83.5337C28.3011 77.556 36.1115 67.303 40 62.9238L21.7517 41Z" fill="black"/>
</svg>
