<svg width="51" height="210" viewBox="0 0 51 210" fill="none" xmlns="http://www.w3.org/2000/svg">
<path d="M24.703 125L50.1912 44.6355C48.7516 40.7295 44.5177 49.7881 41.6387 50.5361C38.7596 51.2841 38.6749 45.5497 37.8281 44.3031C36.9813 43.0565 36.558 41.5605 33.5942 41.0619C30.6305 40.5633 25.5498 43.1396 25.5498 46.547C25.5498 49.9544 25.8038 52.9462 30.2918 55.0239C33.8821 56.686 41.0459 54.8854 44.179 53.7773L39.5217 65.246C35.0337 71.9777 32.4934 68.4041 32.324 66.6589C32.1547 64.9136 30.5458 58.9299 25.8038 59.6779C21.0618 60.4258 19.1142 63.4177 18.9449 65.4954C18.7755 67.573 19.5376 72.1439 23.9409 73.8061C27.4635 75.1358 34.1587 73.529 37.066 72.5595L33.8482 82.283C29.953 89.0978 26.4812 88.516 26.1425 86.189C25.8038 83.862 24.957 78.7094 20.8078 78.377C16.6585 78.0445 13.6101 81.1195 13.3561 83.2803C13.102 85.4411 12.5093 89.1809 17.4206 91.8403C21.3497 93.9678 28.1466 92.1727 31.0539 91.0092L27.8045 100.005C22.9178 108.009 20.1912 106 19.6912 102.5C19.1912 99 17.4206 96.5 14.1912 96.5C10.9617 96.5 9.19117 98.5 8.19117 99.5C7.20018 100.491 5.22712 105.901 10.5444 109.405C14.0269 110.929 21.4266 109.77 24.6912 109L18.7755 125H24.703Z" fill="black"/>
</svg>
