<svg width="54" height="210" viewBox="0 0 54 210" fill="none" xmlns="http://www.w3.org/2000/svg">
<path fill-rule="evenodd" clip-rule="evenodd" d="M45 44.6355L19.5118 125H13.5843L25.8627 91.0092C22.9554 92.1727 16.1586 93.9678 12.2295 91.8403C7.45155 89.2531 7.88274 85.6434 8.14358 83.4598C8.15086 83.3988 8.15801 83.339 8.16491 83.2803C8.41895 81.1195 11.4674 78.0445 15.6166 78.377C19.7658 78.7094 20.6126 83.862 20.9513 86.189C21.2901 88.516 24.7619 89.0978 28.6571 82.283L31.8749 72.5595C28.9676 73.529 22.2723 75.1358 18.7497 73.8061C14.3464 72.1439 13.5843 67.573 13.7537 65.4954C13.923 63.4177 15.8706 60.4258 20.6126 59.6779C25.3546 58.9299 26.9635 64.9136 27.1329 66.6589C27.3022 68.4041 29.8426 71.9777 34.3305 65.246L38.9878 53.7773C35.8547 54.8854 28.6909 56.686 25.1006 55.0239C20.6126 52.9462 20.3586 49.9544 20.3586 46.547C20.3586 43.1396 25.4393 40.5633 28.403 41.0619C30.9089 41.4835 31.5987 42.618 32.2639 43.712C32.3854 43.9119 32.5061 44.1105 32.637 44.3031C32.8886 44.6736 33.073 45.4406 33.2834 46.316C33.7809 48.3858 34.4242 51.0618 36.4475 50.5361C37.6292 50.2291 39.0391 48.5221 40.3903 46.8861C42.3313 44.5361 44.1513 42.3327 45 44.6355ZM49.5 79C51.9853 79 54 76.9853 54 74.5C54 72.0147 51.9853 70 49.5 70C47.0147 70 45 72.0147 45 74.5C45 76.9853 47.0147 79 49.5 79Z" fill="black"/>
</svg>
