<svg width="69" height="210" viewBox="0 0 69 210" fill="none" xmlns="http://www.w3.org/2000/svg">
<path fill-rule="evenodd" clip-rule="evenodd" d="M56 45.1436L34.5155 123.94C33.3604 124.794 30.4438 125.938 28.0181 123.684L39.8866 85.6944C36.3347 86.8895 28.1914 88.9555 24.0331 87.6579C18.8352 86.0358 15.8031 80.0599 17.4491 76.389C19.0951 72.7181 21.8673 69.9863 26.3721 70.4131C30.8769 70.84 32.5229 74.1694 32.9561 76.389C32.99 76.5627 33.0233 76.7416 33.0573 76.9238C33.4578 79.0713 33.9459 81.6886 36.4213 81.7673C39.1069 81.8527 44.3048 73.9987 44.6513 70.4131L49.0695 56.1563C45.9797 57.2946 38.7604 59.3492 34.6021 58.4613C29.4042 57.3515 25.939 53.8513 26.7187 47.4486C27.4983 41.0458 36.0748 40.3628 37.8941 41.3873C38.0844 41.4944 38.2623 41.5922 38.43 41.6844C39.8659 42.4736 40.5514 42.8503 41.7925 45.1436C42.2642 46.0151 42.475 47.0943 42.6811 48.1489C43.0805 50.1934 43.462 52.1457 45.6909 52.3147C47.1306 52.4238 48.6804 50.2387 50.213 48.078C52.277 45.1679 54.3097 42.302 56 45.1436ZM64.5 79C66.9853 79 69 76.9853 69 74.5C69 72.0147 66.9853 70 64.5 70C62.0147 70 60 72.0147 60 74.5C60 76.9853 62.0147 79 64.5 79Z" fill="black"/>
</svg>
