<svg width="59" height="210" viewBox="0 0 59 210" fill="none" xmlns="http://www.w3.org/2000/svg">
<path fill-rule="evenodd" clip-rule="evenodd" d="M50.1912 44.6355L24.703 125H18.7755L24.6912 109C21.4266 109.77 14.0269 110.929 10.5444 109.405C5.22712 105.901 7.20018 100.491 8.19117 99.5C8.25052 99.4407 8.31259 99.3778 8.37751 99.312C9.40648 98.2696 11.1534 96.5 14.1912 96.5C17.4206 96.5 19.1912 99 19.6912 102.5C20.1912 106 22.9178 108.009 27.8045 100.005L31.0539 91.0092C28.1466 92.1727 21.3497 93.9678 17.4206 91.8403C12.6427 89.2531 13.0739 85.6434 13.3347 83.4598C13.342 83.3988 13.3492 83.339 13.3561 83.2803C13.6101 81.1195 16.6585 78.0445 20.8078 78.377C24.957 78.7094 25.8038 83.862 26.1425 86.189C26.4812 88.516 29.953 89.0978 33.8482 82.283L37.066 72.5595C34.1587 73.529 27.4635 75.1358 23.9409 73.8061C19.5376 72.1439 18.7755 67.573 18.9449 65.4954C19.1142 63.4177 21.0618 60.4258 25.8038 59.6779C30.5458 58.9299 32.1547 64.9136 32.324 66.6589C32.4934 68.4041 35.0337 71.9777 39.5217 65.246L44.179 53.7773C41.0459 54.8854 33.8821 56.686 30.2918 55.0239C25.8038 52.9462 25.5498 49.9544 25.5498 46.547C25.5498 43.1396 30.6305 40.5633 33.5942 41.0619C36.1001 41.4835 36.7899 42.618 37.455 43.712C37.5766 43.9119 37.6973 44.1105 37.8281 44.3031C38.0798 44.6736 38.2642 45.4406 38.4746 46.316C38.9721 48.3858 39.6153 51.0618 41.6387 50.5361C42.8203 50.2291 44.2302 48.5221 45.5815 46.8861C47.5225 44.5361 49.3425 42.3327 50.1912 44.6355ZM54.5 79C56.9853 79 59 76.9853 59 74.5C59 72.0147 56.9853 70 54.5 70C52.0147 70 50 72.0147 50 74.5C50 76.9853 52.0147 79 54.5 79Z" fill="black"/>
</svg>
