<svg width="58" height="210" viewBox="0 0 58 210" fill="none" xmlns="http://www.w3.org/2000/svg">
<path fill-rule="evenodd" clip-rule="evenodd" d="M15.2523 41H21.7517L40 62.9238C36.1115 67.303 28.3011 77.556 28.1678 83.5337C28.0344 89.5114 35.6115 99.1075 39.4167 103.158L37.1669 106.443C33.8895 104.554 26.6179 101.533 23.7515 104.554C20.1685 108.331 22.9182 117.035 28.0011 121.88L25.8346 125C20.474 121.469 9.80279 112.503 10.0028 104.883C10.2527 95.3578 18.9186 92.7302 27.3345 96.0968L11.336 75.2405C14.8912 72.4213 22.185 65.1408 22.9182 58.5718C23.6515 52.0029 18.1131 44.1202 15.2523 41ZM53.5 79C55.9853 79 58 76.9853 58 74.5C58 72.0147 55.9853 70 53.5 70C51.0147 70 49 72.0147 49 74.5C49 76.9853 51.0147 79 53.5 79Z" fill="black"/>
</svg>
