<svg width="34" height="210" viewBox="0 0 34 210" fill="none" xmlns="http://www.w3.org/2000/svg">
<path fill-rule="evenodd" clip-rule="evenodd" d="M28 42.8178L15.6074 83H12.7254L15.6016 75C14.0144 75.385 10.4166 75.9644 8.7233 75.2025C6.13801 73.4506 7.09733 70.7455 7.57916 70.25C7.60802 70.2203 7.63819 70.1889 7.66976 70.156C8.17005 69.6348 9.01941 68.75 10.4964 68.75C12.0666 68.75 12.9275 70 13.1706 71.75C13.4137 73.5 14.7394 74.5046 17.1154 70.5023L18.6952 66.0046C17.2817 66.5864 13.977 67.4839 12.0666 66.4201C9.74355 65.1266 9.9532 63.3217 10.08 62.2299C10.0836 62.1994 10.087 62.1695 10.0904 62.1401C10.2139 61.0597 11.6961 59.5223 13.7135 59.6885C15.7309 59.8547 16.1426 62.431 16.3073 63.5945C16.472 64.758 18.16 65.0489 20.0539 61.6415L21.6184 56.7797C20.2049 57.2645 16.9496 58.0679 15.2368 57.403C13.0959 56.572 12.7254 54.2865 12.8077 53.2477C12.8901 52.2088 13.837 50.7129 16.1426 50.3389C18.4482 49.965 19.2305 52.9568 19.3128 53.8294C19.3952 54.7021 20.6303 56.4889 22.8124 53.123L25.0768 47.3886C23.5535 47.9427 20.0704 48.843 18.3247 48.0119C16.1426 46.9731 16.0191 45.4772 16.0191 43.7735C16.0191 42.0698 18.4894 40.7816 19.9304 41.0309C21.1488 41.2418 21.4842 41.809 21.8076 42.356C21.8667 42.456 21.9254 42.5552 21.989 42.6515C22.1113 42.8368 22.201 43.2203 22.3033 43.658C22.5452 44.6929 22.8579 46.0309 23.8417 45.7681C24.4162 45.6146 25.1017 44.7611 25.7587 43.9431C26.7025 42.7681 27.5874 41.6663 28 42.8178ZM31.0536 65.881C32.6809 65.881 34 64.5618 34 62.9345C34 61.3073 32.6809 59.9881 31.0536 59.9881C29.4263 59.9881 28.1072 61.3073 28.1072 62.9345C28.1072 64.5618 29.4263 65.881 31.0536 65.881Z" fill="black"/>
</svg>
