<svg width="32" height="210" viewBox="0 0 32 210" fill="none" xmlns="http://www.w3.org/2000/svg">
<path fill-rule="evenodd" clip-rule="evenodd" d="M4.01044 41H8.266L20.2143 55.3548C17.6682 58.2222 12.5543 64.9355 12.467 68.8495C12.3797 72.7634 17.3409 79.0466 19.8324 81.6989L18.3593 83.8495C16.2133 82.6129 11.4522 80.6344 9.5754 82.6129C7.22939 85.086 9.02982 90.7849 12.3579 93.957L10.9394 96C7.42943 93.6882 0.442316 87.8172 0.573257 82.828C0.736932 76.5914 6.41101 74.871 11.9214 77.0753L1.44619 63.4194C3.77402 61.5735 8.5497 56.8065 9.02982 52.5054C9.50993 48.2043 5.88361 43.043 4.01044 41ZM29.0536 65.881C30.6809 65.881 32 64.5618 32 62.9345C32 61.3073 30.6809 59.9881 29.0536 59.9881C27.4263 59.9881 26.1072 61.3073 26.1072 62.9345C26.1072 64.5618 27.4263 65.881 29.0536 65.881Z" fill="black"/>
</svg>
