<svg width="73" height="210" viewBox="0 0 73 210" fill="none" xmlns="http://www.w3.org/2000/svg">
<path fill-rule="evenodd" clip-rule="evenodd" d="M56 45.1436L34.5155 123.94C33.3604 124.794 30.4438 125.938 28.0181 123.684C29.9163 117.608 31.5867 112.265 33.1232 107.35C38.7083 89.4835 42.5232 77.2803 49.0695 56.1563C45.9797 57.2946 38.7604 59.3492 34.6021 58.4613C29.4042 57.3515 25.939 53.8513 26.7186 47.4486C27.4983 41.0458 36.0748 40.3628 37.8941 41.3873C38.0844 41.4944 38.2623 41.5922 38.43 41.6844C39.8659 42.4736 40.5514 42.8503 41.7925 45.1436C42.2642 46.0151 42.475 47.0943 42.6811 48.1489C43.0805 50.1934 43.462 52.1457 45.6909 52.3147C47.1306 52.4238 48.6804 50.2387 50.213 48.078C52.277 45.1679 54.3097 42.302 56 45.1436ZM68.5 79C70.9853 79 73 76.9853 73 74.5C73 72.0147 70.9853 70 68.5 70C66.0147 70 64 72.0147 64 74.5C64 76.9853 66.0147 79 68.5 79Z" fill="black"/>
</svg>
