<svg width="34" height="210" viewBox="0 0 34 210" fill="none" xmlns="http://www.w3.org/2000/svg">
<path fill-rule="evenodd" clip-rule="evenodd" d="M27.1273 43.0718L16.6104 82.4701C16.0449 82.8969 14.6172 83.4689 13.4298 82.342L19.2396 63.3472C17.5009 63.9448 13.5147 64.9778 11.4791 64.3289C8.93472 63.5179 7.45048 60.53 8.25621 58.6945C9.06194 56.8591 10.419 55.4931 12.6241 55.7066C14.8293 55.92 15.635 57.5847 15.847 58.6945C15.8636 58.7813 15.88 58.8708 15.8966 58.9619C16.0926 60.0356 16.3316 61.3443 17.5433 61.3837C18.8579 61.4264 21.4023 57.4993 21.572 55.7066L23.7347 48.5782C22.2222 49.1473 18.6883 50.1746 16.6528 49.7307C14.1084 49.1757 12.4121 47.4257 12.7937 44.2243C13.1754 41.0229 17.3737 40.6814 18.2642 41.1936C18.3574 41.2472 18.4445 41.2961 18.5266 41.3422C19.2295 41.7368 19.565 41.9252 20.1725 43.0718C20.4034 43.5076 20.5067 44.0471 20.6075 44.5744C20.8031 45.5967 20.9898 46.5729 22.0809 46.6573C22.7856 46.7119 23.5442 45.6194 24.2945 44.539C25.3048 43.084 26.2998 41.651 27.1273 43.0718ZM31.75 60C32.9926 60 34 58.9926 34 57.75C34 56.5073 32.9926 55.5 31.75 55.5C30.5074 55.5 29.5 56.5073 29.5 57.75C29.5 58.9926 30.5074 60 31.75 60Z" fill="white"/>
</svg>
