<svg width="20" height="210" viewBox="0 0 20 210" fill="none" xmlns="http://www.w3.org/2000/svg">
<path d="M8.61036 82.4701L19.1273 43.0718C17.6854 40.5961 15.7347 46.7854 14.0809 46.6573C12.427 46.5293 12.8511 44.3523 12.1725 43.0718C11.494 41.7912 11.1548 41.7059 10.2642 41.1936C9.37369 40.6814 5.17541 41.0229 4.79374 44.2243C4.41208 47.4257 6.10836 49.1757 8.65277 49.7307C10.6883 50.1746 14.2222 49.1473 15.7347 48.5782L13.572 55.7066C13.4023 57.4993 10.8579 61.4264 9.54331 61.3837C8.2287 61.341 8.05907 59.8043 7.84704 58.6945C7.635 57.5847 6.82927 55.92 4.62412 55.7066C2.41896 55.4931 1.06194 56.8591 0.256206 58.6945C-0.549525 60.53 0.934716 63.5179 3.47913 64.3289C5.51466 64.9778 9.50091 63.9448 11.2396 63.3472L5.42985 82.342C6.61724 83.4689 8.04494 82.8969 8.61036 82.4701Z" fill="white"/>
</svg>
