<svg width="18" height="210" viewBox="0 0 18 210" fill="none" xmlns="http://www.w3.org/2000/svg">
<path d="M5.60034 83L18 42.8178C17.2997 40.8647 15.2399 45.3941 13.8393 45.7681C12.4387 46.142 12.3975 43.2748 11.9855 42.6515C11.5736 42.0282 11.3676 41.2803 9.9258 41.0309C8.48398 40.7816 6.01229 42.0698 6.01229 43.7735C6.01229 45.4772 6.13587 46.9731 8.3192 48.0119C10.0659 48.843 13.551 47.9427 15.0752 47.3886L12.8094 53.123C10.6261 56.4889 9.39027 54.7021 9.30788 53.8294C9.22549 52.9568 8.44279 49.965 6.13587 50.3389C3.82896 50.7129 2.88148 52.2088 2.79909 53.2477C2.7167 54.2865 3.08745 56.572 5.22959 57.403C6.94329 58.0679 10.2004 57.2645 11.6148 56.7797L10.0494 61.6415C8.15442 65.0489 6.46543 64.758 6.30065 63.5945C6.13587 62.431 5.72393 59.8547 3.70538 59.6885C1.68683 59.5223 0.203813 61.0597 0.0802284 62.1401C-0.0433563 63.2205 -0.331721 65.0904 2.05758 66.4201C3.96902 67.4839 7.2756 66.5864 8.68996 66.0046L2.7167 83H5.60034Z" fill="white"/>
</svg>
