<svg width="21" height="210" viewBox="0 0 21 210" fill="none" xmlns="http://www.w3.org/2000/svg">
<path d="M8.60738 83L21 42.8178C20.3001 40.8647 18.2415 45.3941 16.8417 45.7681C15.4418 46.142 15.4007 43.2748 14.989 42.6515C14.5772 42.0282 14.3714 41.2803 12.9304 41.0309C11.4894 40.7816 9.01909 42.0698 9.01909 43.7735C9.01909 45.4772 9.1426 46.9731 11.3247 48.0119C13.0704 48.843 16.5535 47.9427 18.0768 47.3886L15.8124 53.123C13.6303 56.4889 12.3952 54.7021 12.3128 53.8294C12.2305 52.9568 11.4482 49.965 9.1426 50.3389C6.837 50.7129 5.89006 52.2088 5.80771 53.2477C5.72537 54.2865 6.09591 56.572 8.23683 57.403C9.94957 58.0679 13.2049 57.2645 14.6184 56.7797L13.0539 61.6415C11.16 65.0489 9.47198 64.758 9.30729 63.5945C9.1426 62.431 8.73089 59.8547 6.71349 59.6885C4.69608 59.5223 3.21391 61.0597 3.09039 62.1401C2.96688 63.2205 2.67868 65.0904 5.06663 66.4201C6.97698 67.4839 10.2817 66.5864 11.6952 66.0046L10.1154 70.5023C7.73941 74.5046 6.41368 73.5 6.17058 71.75C5.92747 70 5.06663 68.75 3.49642 68.75C1.92621 68.75 1.06537 69.75 0.579159 70.25C0.0973281 70.7455 -0.861993 73.4506 1.7233 75.2025C3.41655 75.9644 7.01438 75.385 8.60163 75L5.72537 83H8.60738Z" fill="white"/>
</svg>
