<svg width="30" height="210" viewBox="0 0 30 210" fill="none" xmlns="http://www.w3.org/2000/svg">
<path fill-rule="evenodd" clip-rule="evenodd" d="M24 42.8178L11.6003 83H8.7167L14.69 66.0046C13.2756 66.5864 9.96902 67.4839 8.05758 66.4201C5.73319 65.1266 5.94295 63.3217 6.06985 62.2299C6.07339 62.1994 6.07687 62.1695 6.08023 62.1401C6.20381 61.0597 7.68683 59.5223 9.70538 59.6885C11.7239 59.8547 12.1359 62.431 12.3007 63.5945C12.4654 64.758 14.1544 65.0489 16.0494 61.6415L17.6148 56.7797C16.2004 57.2645 12.9433 58.0679 11.2296 57.403C9.08745 56.572 8.7167 54.2865 8.79909 53.2477C8.88148 52.2088 9.82896 50.7129 12.1359 50.3389C14.4428 49.965 15.2255 52.9568 15.3079 53.8294C15.3903 54.7021 16.6261 56.4889 18.8094 53.123L21.0752 47.3886C19.551 47.9427 16.0659 48.843 14.3192 48.0119C12.1359 46.9731 12.0123 45.4772 12.0123 43.7735C12.0123 42.0698 14.484 40.7816 15.9258 41.0309C17.1449 41.2418 17.4805 41.809 17.804 42.356C17.8632 42.456 17.9219 42.5552 17.9855 42.6515C18.108 42.8368 18.1977 43.2203 18.3 43.658C18.5421 44.6929 18.855 46.0309 19.8393 45.7681C20.4142 45.6146 21.1001 44.7611 21.7575 43.9431C22.7017 42.7681 23.5871 41.6663 24 42.8178ZM27.0536 65.881C28.6808 65.881 30 64.5618 30 62.9345C30 61.3073 28.6808 59.9881 27.0536 59.9881C25.4263 59.9881 24.1071 61.3073 24.1071 62.9345C24.1071 64.5618 25.4263 65.881 27.0536 65.881Z" fill="white"/>
</svg>
