<svg width="30" height="210" viewBox="0 0 30 210" fill="none" xmlns="http://www.w3.org/2000/svg">
<path fill-rule="evenodd" clip-rule="evenodd" d="M21.5 43.0718L10.7577 82.4701C10.1802 82.8969 8.72189 83.4689 7.50905 82.342C8.45807 79.3043 9.29325 76.6327 10.0614 74.1753C12.8541 65.242 14.7615 59.1403 18.0347 48.5782C16.4898 49.1473 12.8802 50.1746 10.801 49.7307C8.2021 49.1757 6.46948 47.4257 6.85932 44.2243C7.24916 41.0229 11.5374 40.6814 12.447 41.1936C12.5422 41.2472 12.6312 41.2961 12.715 41.3422C13.4329 41.7368 13.7757 41.9252 14.3962 43.0718C14.6321 43.5076 14.7375 44.0471 14.8405 44.5744C15.0403 45.5967 15.231 46.5729 16.3454 46.6573C17.0653 46.7119 17.8402 45.6194 18.6065 44.539C19.6385 43.084 20.6548 41.651 21.5 43.0718ZM27.75 60C28.9926 60 30 58.9926 30 57.75C30 56.5073 28.9926 55.5 27.75 55.5C26.5073 55.5 25.5 56.5073 25.5 57.75C25.5 58.9926 26.5073 60 27.75 60Z" fill="white"/>
</svg>
