<svg width="117" height="29" viewBox="0 0 117 29" fill="none" xmlns="http://www.w3.org/2000/svg">
<path fill-rule="evenodd" clip-rule="evenodd" d="M8.53638 2.8531L48.5364 15.8531L88.5364 28.8531L89.4636 26L49.4636 13L9.46364 0L8.53638 2.8531ZM107.82 19.8265C107.82 18.5999 107.713 17.4799 107.5 16.4665C107.26 14.7332 106.66 13.3999 105.7 12.4665C104.767 11.5065 103.54 11.0265 102.02 11.0265C101.193 11.0265 100.447 11.1865 99.7801 11.5065C99.1134 11.7999 98.5668 12.2132 98.1401 12.7465C98.0868 12.7999 98.0334 12.8265 97.9801 12.8265C97.9534 12.7999 97.9401 12.7599 97.9401 12.7065V3.90653C97.9401 3.79986 97.9934 3.74653 98.1001 3.74653H106.86C107.127 3.74653 107.26 3.61319 107.26 3.34653V0.826526C107.26 0.55986 107.127 0.426526 106.86 0.426526H94.5001C94.2334 0.426526 94.1001 0.55986 94.1001 0.826526V16.6265C94.1001 16.8932 94.2334 17.0265 94.5001 17.0265H97.5801C97.7934 17.0265 97.9401 16.9065 98.0201 16.6665C98.3934 15.1465 99.3668 14.3865 100.94 14.3865C101.633 14.3865 102.207 14.5999 102.66 15.0265C103.14 15.4532 103.473 16.0665 103.66 16.8665C103.873 17.7199 103.98 18.7065 103.98 19.8265C103.98 20.8932 103.9 21.8265 103.74 22.6265C103.58 23.5332 103.26 24.2265 102.78 24.7065C102.3 25.1865 101.687 25.4265 100.94 25.4265C99.3934 25.4265 98.4468 24.4665 98.1001 22.5465L97.9801 21.6665C97.9801 21.3999 97.8468 21.2665 97.5801 21.2665H94.5401C94.2734 21.2665 94.1401 21.3999 94.1401 21.6665L94.2601 22.8665C94.5534 24.8132 95.2734 26.2799 96.4201 27.2665C97.5668 28.2532 99.0734 28.7465 100.94 28.7465C102.86 28.7465 104.407 28.2399 105.58 27.2265C106.753 26.2132 107.433 24.7599 107.62 22.8665C107.753 21.8532 107.82 20.8399 107.82 19.8265Z" fill="#D6D6D6"/>
</svg>
