<svg width="117" height="29" viewBox="0 0 117 29" fill="none" xmlns="http://www.w3.org/2000/svg">
<path fill-rule="evenodd" clip-rule="evenodd" d="M28.2364 26L108.236 0L109.164 2.8531L29.1636 28.8531L28.2364 26ZM24.72 19.8266C24.72 18.5999 24.6133 17.4799 24.4 16.4666C24.16 14.7332 23.56 13.3999 22.6 12.4666C21.6667 11.5066 20.44 11.0266 18.92 11.0266C18.0933 11.0266 17.3467 11.1866 16.68 11.5066C16.0133 11.7999 15.4667 12.2132 15.04 12.7466C14.9867 12.7999 14.9333 12.8266 14.88 12.8266C14.8533 12.7999 14.84 12.7599 14.84 12.7066V3.90655C14.84 3.79988 14.8933 3.74655 15 3.74655H23.76C24.0267 3.74655 24.16 3.61322 24.16 3.34655V0.82655C24.16 0.559883 24.0267 0.42655 23.76 0.42655H11.4C11.1333 0.42655 11 0.559883 11 0.82655V16.6266C11 16.8932 11.1333 17.0266 11.4 17.0266H14.48C14.6933 17.0266 14.84 16.9066 14.92 16.6666C15.2933 15.1466 16.2667 14.3866 17.84 14.3866C18.5333 14.3866 19.1067 14.5999 19.56 15.0266C20.04 15.4532 20.3733 16.0666 20.56 16.8666C20.7733 17.7199 20.88 18.7066 20.88 19.8266C20.88 20.8932 20.8 21.8266 20.64 22.6266C20.48 23.5332 20.16 24.2266 19.68 24.7066C19.2 25.1866 18.5867 25.4266 17.84 25.4266C16.2933 25.4266 15.3467 24.4666 15 22.5466L14.88 21.6666C14.88 21.3999 14.7467 21.2666 14.48 21.2666H11.44C11.1733 21.2666 11.04 21.3999 11.04 21.6666L11.16 22.8666C11.4533 24.8132 12.1733 26.2799 13.32 27.2666C14.4667 28.2532 15.9733 28.7466 17.84 28.7466C19.76 28.7466 21.3067 28.2399 22.48 27.2266C23.6533 26.2132 24.3333 24.7599 24.52 22.8666C24.6533 21.8532 24.72 20.8399 24.72 19.8266Z" fill="#D6D6D6"/>
</svg>
