<svg width="117" height="30" viewBox="0 0 117 30" fill="none" xmlns="http://www.w3.org/2000/svg">
<path fill-rule="evenodd" clip-rule="evenodd" d="M15.6364 3.49684L95.6364 29.4968L96.5636 26.6437L16.5636 0.643738L15.6364 3.49684ZM4.12 1.19029C4.28 1.11029 4.44 1.07029 4.6 1.07029H7.8C8.06667 1.07029 8.2 1.20362 8.2 1.47029V28.6703C8.2 28.937 8.06667 29.0703 7.8 29.0703H4.76C4.49333 29.0703 4.36 28.937 4.36 28.6703V5.27029C4.36 5.21696 4.33333 5.17696 4.28 5.15029C4.25333 5.09696 4.22667 5.08362 4.2 5.11029L0.64 6.03029L0.48 6.07029C0.32 6.07029 0.213333 5.95029 0.16 5.71029L0 3.47029C0 3.23029 0.0933333 3.07029 0.28 2.99029L4.12 1.19029ZM116.08 16.4303C116.373 17.737 116.52 19.0836 116.52 20.4703C116.52 21.8036 116.4 23.017 116.16 24.1103C115.787 25.817 115.08 27.1236 114.04 28.0303C113 28.937 111.573 29.3903 109.76 29.3903C107.893 29.3903 106.36 28.8836 105.16 27.8703C103.987 26.857 103.293 25.4703 103.08 23.7103C102.947 22.7236 102.88 21.777 102.88 20.8703C102.88 20.6036 103.013 20.4703 103.28 20.4703H106.32C106.587 20.4703 106.72 20.6036 106.72 20.8703C106.773 21.9636 106.84 22.737 106.92 23.1903C107.08 24.097 107.4 24.8036 107.88 25.3103C108.387 25.7903 109.013 26.0303 109.76 26.0303C111.253 26.0303 112.2 25.1636 112.6 23.4303C112.76 22.417 112.84 21.297 112.84 20.0703C112.84 18.6303 112.72 17.377 112.48 16.3103C112.267 15.5636 111.92 14.9903 111.44 14.5903C110.987 14.1636 110.427 13.9503 109.76 13.9503C109.413 13.9503 109.053 14.0703 108.68 14.3103C108.6 14.3903 108.507 14.4303 108.4 14.4303C108.293 14.4303 108.2 14.377 108.12 14.2703L106.6 12.7103C106.467 12.5236 106.453 12.337 106.56 12.1503L111.76 4.59029C111.787 4.56362 111.787 4.52362 111.76 4.47029C111.733 4.41696 111.693 4.39029 111.64 4.39029H103.56C103.293 4.39029 103.16 4.25696 103.16 3.99029V1.47029C103.16 1.20362 103.293 1.07029 103.56 1.07029H116.04C116.307 1.07029 116.44 1.20362 116.44 1.47029V4.11029C116.44 4.32362 116.387 4.49696 116.28 4.63029L111.6 11.5103C111.52 11.5903 111.547 11.657 111.68 11.7103C112.747 11.8703 113.653 12.377 114.4 13.2303C115.173 14.057 115.733 15.1236 116.08 16.4303Z" fill="#D6D6D6"/>
</svg>
