<svg width="117" height="30" viewBox="0 0 117 30" fill="none" xmlns="http://www.w3.org/2000/svg">
<path fill-rule="evenodd" clip-rule="evenodd" d="M28.0364 3.42653L108.036 29.4265L108.964 26.5734L28.9637 0.573425L28.0364 3.42653ZM24.52 20.4C24.52 19.1733 24.4134 18.0533 24.2 17.04C23.96 15.3066 23.36 13.9733 22.4 13.04C21.4667 12.08 20.24 11.6 18.72 11.6C17.8934 11.6 17.1467 11.76 16.48 12.08C15.8134 12.3733 15.2667 12.7866 14.84 13.32C14.7867 13.3733 14.7334 13.4 14.68 13.4C14.6534 13.3733 14.64 13.3333 14.64 13.28V4.47998C14.64 4.37331 14.6934 4.31998 14.8 4.31998H23.5601C23.8267 4.31998 23.96 4.18664 23.96 3.91998V1.39997C23.96 1.13331 23.8267 0.999977 23.5601 0.999977H11.2C10.9334 0.999977 10.8 1.13331 10.8 1.39997V17.2C10.8 17.4666 10.9334 17.6 11.2 17.6H14.28C14.4934 17.6 14.64 17.48 14.72 17.24C15.0934 15.72 16.0667 14.96 17.64 14.96C18.3334 14.96 18.9067 15.1733 19.36 15.6C19.84 16.0266 20.1734 16.64 20.36 17.44C20.5734 18.2933 20.68 19.28 20.68 20.4C20.68 21.4666 20.6 22.4 20.44 23.2C20.28 24.1066 19.96 24.8 19.4801 25.28C19 25.76 18.3867 26 17.64 26C16.0934 26 15.1467 25.04 14.8 23.12L14.68 22.24C14.68 21.9733 14.5467 21.84 14.28 21.84H11.24C10.9734 21.84 10.84 21.9733 10.84 22.24L10.96 23.44C11.2534 25.3866 11.9734 26.8533 13.12 27.84C14.2667 28.8266 15.7734 29.32 17.64 29.32C19.5601 29.32 21.1067 28.8133 22.28 27.8C23.4534 26.7866 24.1334 25.3333 24.32 23.44C24.4534 22.4266 24.52 21.4133 24.52 20.4Z" fill="#D6D6D6"/>
</svg>
